<svg width="23" height="13" viewBox="0 0 23 13" fill="none" xmlns="http://www.w3.org/2000/svg">
<g clip-path="url(#clip0_333_6)">
<path d="M6.45574 0C10.0216 0 12.9115 2.91045 12.9115 6.50045C12.9115 10.0904 10.0207 13 6.45574 13C2.89078 13 0 10.0896 0 6.50045C0 2.91134 2.89078 0 6.45574 0ZM16.7653 0.380907C18.5482 0.380907 19.9931 3.12057 19.9931 6.50045C19.9931 9.87943 18.5482 12.6191 16.7653 12.6191C14.9823 12.6191 13.5374 9.87943 13.5374 6.50045C13.5374 3.12147 14.9823 0.380907 16.7653 0.380907ZM21.7546 1.01843C22.3805 1.01843 22.8902 3.47287 22.8902 6.50045C22.8902 9.52803 22.3823 11.9816 21.7546 11.9816C21.1269 11.9816 20.6199 9.52624 20.6199 6.49955C20.6199 3.47287 21.1278 1.01843 21.7546 1.01843Z" fill="black"/>
</g>
<defs>
<clipPath id="clip0_333_6">
<rect width="22.8902" height="13" fill="white"/>
</clipPath>
</defs>
</svg>
