<svg width="281" height="291" viewBox="0 0 281 291" fill="none" xmlns="http://www.w3.org/2000/svg">
<path fill-rule="evenodd" clip-rule="evenodd" d="M164.629 0L159.303 23.8314L162.134 24.4213L164.41 14.3089C165.303 10.3483 165.876 7.46626 166.365 4.41571H166.483C167.191 7.45479 168.08 10.4489 169.145 13.382L174.016 27.1684L177.117 27.8595L182.46 4.02808L179.561 3.38762L177.32 13.3483C176.494 17.0561 175.921 19.9887 175.483 23.2246C174.818 20.2751 173.968 17.3705 172.938 14.528L167.999 0.758419L164.629 0ZM191.055 30.91L190.448 33.0505L193.145 34.1123C193.456 32.7388 193.89 31.3963 194.443 30.101L196.903 24.0336C198.218 20.764 198.387 16.8876 193.415 14.882C191.541 14.0995 189.489 13.8487 187.482 14.1573L187.381 16.382C188.971 16.1185 190.602 16.2933 192.1 16.8876C192.627 17.0367 193.113 17.3034 193.522 17.6675C193.931 18.0315 194.253 18.4836 194.462 18.9897C194.671 19.4958 194.763 20.0427 194.73 20.5894C194.698 21.1361 194.542 21.6683 194.274 22.146L194.139 22.4662C187.87 19.9045 183.505 20.646 181.92 24.573C181.653 25.2156 181.522 25.9064 181.534 26.6023C181.546 27.2981 181.702 27.9838 181.992 28.6167C182.281 29.2495 182.698 29.8157 183.217 30.28C183.735 30.7442 184.344 31.0964 185.005 31.3145C185.957 31.7249 186.993 31.9023 188.028 31.832C189.063 31.7616 190.066 31.4456 190.954 30.91H191.055ZM184.937 25.4999C186.285 22.3314 190.179 23.2415 193.364 24.6235L192.235 27.4381C192.088 27.7529 191.901 28.0475 191.679 28.3145C191.067 29.018 190.246 29.5071 189.336 29.7103C188.426 29.9135 187.475 29.8201 186.622 29.4437C186.233 29.3229 185.874 29.1188 185.571 28.8456C185.268 28.5724 185.028 28.2366 184.868 27.8615C184.708 27.4864 184.631 27.0809 184.643 26.6731C184.655 26.2653 184.755 25.865 184.937 25.4999ZM203.562 24.6235C204.279 23.498 204.851 22.5177 205.405 21.5694C205.605 21.2255 205.804 20.8858 206.006 20.5449L208.365 22.0617L206.949 24.5224H207.05C208.032 23.9679 209.148 23.6993 210.274 23.7469C211.4 23.7946 212.49 24.1566 213.421 24.7921C214.363 25.3719 215.094 26.2372 215.51 27.2619C215.925 28.2865 216.002 29.417 215.73 30.4887C216.619 30.0019 217.602 29.709 218.612 29.6291C220.005 29.5092 221.396 29.8852 222.539 30.6909C224.494 31.9381 226.567 35.0729 223.281 40.1965L217.685 48.8763L215.073 47.1909L220.432 38.7639C222.253 35.9325 222.32 33.5561 220.163 32.1741C219.43 31.7407 218.581 31.5452 217.733 31.6146C216.885 31.6841 216.079 32.015 215.427 32.5617C215.001 32.9018 214.636 33.3122 214.348 33.7752L208.483 42.8763L205.871 41.1909L211.55 32.3595C213.05 30.0168 213.118 27.6404 211.079 26.3258C210.284 25.8759 209.368 25.6876 208.461 25.7874C207.553 25.8872 206.7 26.2702 206.022 26.882C205.603 27.1989 205.248 27.5937 204.977 28.0449L199.247 36.9437L196.635 35.2583L203.562 24.6235ZM226.098 49.1553C226.428 48.41 226.915 47.7453 227.528 47.2075L236.376 55.7019C236.759 55.3907 237.125 55.0588 237.471 54.7075C239.612 52.3648 242.073 47.6626 237.926 43.7188C234.219 40.1963 229.095 41.0727 225.438 44.8986C221.78 48.7244 221.679 53.5278 225.589 57.2525C227.025 58.6785 228.749 59.7817 230.646 60.4884L231.825 58.4659C230.266 57.8747 228.852 56.9551 227.679 55.7693C227.048 55.2535 226.537 54.6066 226.182 53.8734C225.826 53.1402 225.634 52.3383 225.62 51.5236C225.606 50.7088 225.769 49.9007 226.098 49.1553ZM236.241 45.2525C238.853 47.6794 237.303 50.5615 235.87 51.994L229.129 45.6233C230.831 44.2075 233.915 43.0278 236.241 45.2525ZM240.505 67.23C240.63 69.2236 241.294 71.1458 242.426 72.7918C244.28 75.4379 246.758 75.994 248.78 74.5951C250.803 73.1963 250.971 71.4603 250.112 68.039C248.999 63.9603 249.269 60.7581 252.1 58.7862C255.218 56.612 259.348 57.5727 262.061 61.466C263.178 62.9469 263.903 64.6861 264.168 66.5221L261.555 67.2806C261.373 65.6751 260.794 64.1402 259.87 62.8143C257.966 60.0839 255.606 60.1851 254.241 61.1289C252.37 62.4266 252.303 64.2974 253.162 67.8704C254.224 72.1682 253.786 75.0333 250.853 77.0895C247.921 79.1457 243.488 78.7749 240.185 74.1064C238.917 72.3371 238.127 70.2704 237.893 68.1064L240.505 67.23ZM253.651 97.0613C254.83 96.3534 256.179 95.6118 257.864 94.8028L269.392 89.1399L267.976 86.2748L258.268 91.1287C257.765 91.3757 257.224 91.5353 256.667 91.6006C255.762 91.6705 254.856 91.473 254.062 91.0326C253.268 90.5921 252.621 89.9281 252.201 89.1231C250.92 86.5107 252.471 84.6231 255.471 83.14L264.167 78.8085L262.735 75.9602L253.549 80.5276C248.038 83.2579 248.139 86.8984 249.37 89.359C249.87 90.4147 250.643 91.3179 251.609 91.9756C252.575 92.6332 253.698 93.0215 254.864 93.1006L252.386 94.5332L253.651 97.0613ZM266.494 97.2133C268.449 96.5223 270.101 95.8987 271.55 95.2751L272.461 97.9043L269.241 99.1347V99.2695C270.358 99.2029 271.466 99.4938 272.405 100.1C273.345 100.706 274.067 101.596 274.466 102.64C274.57 102.929 274.638 103.229 274.668 103.534L271.82 104.528C271.785 104.164 271.7 103.807 271.567 103.466C271.166 102.452 270.41 101.619 269.439 101.122C268.468 100.626 267.349 100.5 266.292 100.769C265.802 100.859 265.318 100.977 264.843 101.123L256.18 104.157L255.135 101.174L266.494 97.2133ZM271.366 109.158L271.348 109.162L258.809 111.791L259.466 114.909L269.78 112.735C270.272 112.622 270.778 112.588 271.28 112.634C272.247 112.71 273.164 113.093 273.897 113.727C274.631 114.36 275.143 115.212 275.359 116.157C275.983 119.106 273.893 120.623 271.129 121.213L261.236 123.303L261.893 126.421L272.14 124.246C278.022 123.016 278.662 119.022 278.157 116.645C277.957 115.478 277.439 114.388 276.66 113.496C275.881 112.604 274.871 111.944 273.741 111.589L276.539 110.814L275.949 108.05C274.572 108.453 273.045 108.789 271.367 109.158L271.366 109.158ZM262.921 140.41L265.095 140.022V139.921C264.23 139.35 263.513 138.582 263.003 137.679C262.493 136.777 262.205 135.766 262.163 134.73C262.079 134.046 262.135 133.352 262.329 132.69C262.524 132.029 262.851 131.414 263.291 130.883C263.732 130.353 264.276 129.918 264.89 129.606C265.505 129.294 266.177 129.11 266.865 129.067C271.095 128.814 273.607 132.438 274.011 139.18H274.382C274.929 139.215 275.476 139.127 275.984 138.921C276.492 138.714 276.946 138.396 277.313 137.988C277.679 137.581 277.949 137.096 278.101 136.57C278.253 136.043 278.284 135.489 278.191 134.949C278.086 133.342 277.538 131.796 276.607 130.483L278.663 129.623C279.811 131.298 280.47 133.258 280.567 135.286C280.887 140.629 277.314 142.163 273.826 142.365L267.286 142.769C265.88 142.828 264.482 143.008 263.107 143.309L262.921 140.41ZM271.82 139.399C271.685 135.927 270.826 132.017 267.421 132.236C267.015 132.227 266.613 132.307 266.24 132.469C265.868 132.631 265.535 132.871 265.265 133.174C264.994 133.476 264.792 133.834 264.673 134.222C264.553 134.61 264.519 135.019 264.573 135.421C264.604 136.347 264.93 137.238 265.503 137.966C266.075 138.693 266.866 139.219 267.758 139.466C268.093 139.556 268.44 139.596 268.786 139.584L271.82 139.399ZM280.937 149.14C279.488 149.072 278.004 148.921 276.218 148.685L263.544 147.067L263.156 150.168L273.656 151.483C274.816 151.62 275.885 152.181 276.656 153.058C277.428 153.936 277.848 155.067 277.836 156.235C277.532 158.645 275.375 159.606 272.594 159.269L262.179 157.954L261.791 161.056L272.544 162.404C273.079 162.475 273.601 162.622 274.094 162.842C274.867 163.2 275.512 163.786 275.943 164.521C276.374 165.256 276.57 166.105 276.504 166.954C276.184 169.499 274.044 170.477 270.673 170.056L260.813 168.825L260.426 171.909L270.673 173.19C276.723 173.949 278.662 170.73 278.948 168.421C279.172 167.044 278.909 165.632 278.207 164.426C277.694 163.553 277.005 162.795 276.184 162.202C277.254 161.976 278.227 161.421 278.965 160.614C279.702 159.806 280.168 158.788 280.297 157.702C280.462 156.586 280.313 155.446 279.867 154.41C279.42 153.373 278.693 152.482 277.768 151.837V151.702L280.6 151.904L280.937 149.14ZM266.191 180.05C265.443 179.73 264.635 179.577 263.823 179.601C263.01 179.625 262.213 179.825 261.485 180.187C260.757 180.549 260.117 181.065 259.608 181.699C259.1 182.333 258.735 183.07 258.539 183.859C257.976 185.429 257.752 187.1 257.882 188.763L255.556 188.561C255.39 186.567 255.655 184.562 256.331 182.679C258.016 177.623 262.382 175.584 267.404 177.235C272.427 178.887 275.427 183.117 273.842 187.971C272.056 193.415 266.797 193.297 263.73 192.303C263.259 192.145 262.797 191.959 262.348 191.746L266.191 180.05ZM265.449 189.64C267.37 190.297 270.64 190.449 271.752 187.044C272.747 183.977 270.37 181.718 268.382 180.791L265.449 189.64ZM256.756 210.782C256.434 210.099 255.916 209.528 255.269 209.14C254.843 208.88 254.371 208.706 253.878 208.63C253.385 208.554 252.882 208.576 252.398 208.695C251.914 208.814 251.458 209.028 251.057 209.324C250.656 209.62 250.317 209.993 250.061 210.421C249.667 211.065 249.474 211.811 249.505 212.565C249.537 213.319 249.791 214.047 250.237 214.656C250.683 215.265 251.299 215.728 252.008 215.986C252.718 216.244 253.488 216.286 254.221 216.106C254.954 215.925 255.616 215.532 256.125 214.974C256.634 214.416 256.965 213.72 257.078 212.974C257.19 212.227 257.078 211.464 256.756 210.782ZM237.287 219.421L255.287 235.921L252.961 238.465L238.568 235.887C235.588 235.364 232.644 234.655 229.753 233.763C232.349 235.752 234.59 237.707 237.388 240.286L244.922 247.179L242.916 249.37L224.916 232.87L227.056 230.527L241.45 233.173C244.517 233.709 247.55 234.424 250.534 235.314V235.213C248.141 233.275 245.933 231.336 242.933 228.589L235.247 221.544L237.287 219.421ZM215.392 243.404L213.824 241.819L211.465 243.69C212.494 244.648 213.442 245.691 214.296 246.808L218.358 251.949C220.532 254.713 223.836 256.836 228.032 253.465C229.642 252.223 230.879 250.561 231.605 248.662L229.734 247.465C229.173 248.975 228.212 250.303 226.954 251.308C226.565 251.696 226.093 251.989 225.574 252.167C225.055 252.345 224.502 252.402 223.958 252.333C223.413 252.265 222.891 252.074 222.432 251.773C221.973 251.473 221.588 251.072 221.307 250.6L221.088 250.314C226.431 246.151 227.948 242.038 225.319 238.668C224.891 238.127 224.358 237.679 223.752 237.352C223.145 237.025 222.478 236.825 221.791 236.765C221.105 236.705 220.413 236.786 219.759 237.003C219.105 237.22 218.502 237.569 217.987 238.027C217.161 238.655 216.495 239.469 216.044 240.404C215.593 241.338 215.369 242.366 215.392 243.404ZM223.111 240.859C225.234 243.505 222.521 246.454 219.74 248.561L217.836 246.168C217.627 245.891 217.462 245.584 217.347 245.258C217.045 244.382 217.03 243.434 217.302 242.549C217.575 241.665 218.122 240.89 218.864 240.336C219.165 240.064 219.521 239.86 219.908 239.738C220.295 239.616 220.704 239.578 221.107 239.628C221.509 239.677 221.897 239.813 222.243 240.025C222.588 240.238 222.885 240.522 223.111 240.859ZM214.6 257.477C215.443 259.078 216.168 260.376 216.926 261.623L214.449 262.904L213.016 260.477H212.915C212.917 261.602 212.602 262.704 212.006 263.658C211.409 264.612 210.556 265.379 209.544 265.87C208.585 266.391 207.485 266.594 206.404 266.449C205.322 266.303 204.314 265.817 203.527 265.061C203.505 266.074 203.276 267.072 202.853 267.994C202.253 269.252 201.243 270.268 199.988 270.876C197.932 271.954 194.173 272.19 191.359 266.797L186.572 257.645L189.336 256.196L193.938 264.994C195.488 267.994 197.527 269.207 199.803 268.027C200.539 267.601 201.127 266.958 201.486 266.186C201.845 265.414 201.957 264.551 201.808 263.713C201.708 263.179 201.532 262.663 201.286 262.179L196.23 252.572L198.876 251.274L203.746 260.578C205.044 263.055 207.117 264.286 209.224 263.156C210.007 262.692 210.624 261.993 210.987 261.158C211.35 260.323 211.441 259.394 211.246 258.505C211.171 257.98 211.006 257.473 210.758 257.005L205.853 247.634L208.617 246.185L214.6 257.477ZM182.186 264.846C182.669 265.501 183.005 266.253 183.168 267.05L171.371 270.572C171.445 271.067 171.552 271.557 171.691 272.038C172.567 275.123 175.5 279.555 180.994 277.87C185.882 276.42 187.685 271.533 186.168 266.46C184.652 261.387 180.539 258.909 175.382 260.46C173.446 260.981 171.643 261.906 170.09 263.173L171.27 265.196C172.556 264.135 174.057 263.365 175.668 262.937C176.429 262.647 177.243 262.525 178.054 262.581C178.866 262.636 179.656 262.868 180.369 263.259C181.083 263.65 181.703 264.192 182.186 264.846ZM180.573 275.611C177.152 276.639 175.416 273.875 174.859 271.92L183.792 269.258C184.18 271.448 183.674 274.684 180.573 275.611ZM159.269 268.381C157.479 267.511 155.49 267.133 153.505 267.286C150.286 267.572 148.567 269.426 148.786 271.887C149.005 274.347 150.387 275.257 153.842 276.319C157.938 277.381 160.584 279.218 160.871 282.656C161.208 286.448 158.326 289.533 153.59 289.954C151.732 290.183 149.847 289.933 148.112 289.229L148.753 286.6C150.239 287.236 151.861 287.491 153.472 287.342C156.842 287.055 157.887 284.948 157.736 283.297C157.533 281.021 155.949 280.027 152.477 279.033C148.23 277.802 145.955 275.999 145.635 272.426C145.314 268.853 147.809 265.179 153.539 264.673C155.707 264.452 157.896 264.795 159.893 265.668L159.269 268.381ZM126.892 265.027C126.909 266.443 126.859 267.993 126.757 269.814L125.932 282.606L129.1 282.808L129.741 272.055C129.764 271.476 129.89 270.905 130.111 270.37C130.5 269.55 131.121 268.862 131.897 268.392C132.673 267.921 133.57 267.689 134.477 267.724C137.375 267.892 138.269 270.151 138.066 273.521L137.51 283.229L140.679 283.415L141.286 273.168C141.639 267.016 138.437 265.297 135.69 265.145C134.523 265.055 133.354 265.277 132.302 265.79C131.25 266.302 130.354 267.086 129.707 268.061V265.196L126.892 265.027ZM120.32 276.016C119.949 278.055 119.663 279.808 119.46 281.426L116.73 280.92L117.252 277.549H117.101C116.612 278.551 115.819 279.371 114.834 279.892C113.85 280.413 112.726 280.608 111.623 280.448C111.324 280.396 111.034 280.3 110.764 280.162L111.303 277.212C111.645 277.352 112.001 277.454 112.365 277.516C113.441 277.673 114.538 277.431 115.448 276.835C116.358 276.239 117.018 275.33 117.303 274.28C117.48 273.814 117.621 273.335 117.724 272.847L119.41 263.645L122.511 264.218L120.32 276.016ZM106.247 278.814C106.584 277.398 107.006 275.932 107.562 274.246L111.523 262.162L108.489 261.184L105.27 271.213C105.123 271.694 104.901 272.149 104.613 272.561C104.072 273.361 103.29 273.967 102.38 274.291C101.471 274.616 100.481 274.641 99.5564 274.364C96.6913 273.437 96.4216 270.875 97.2811 268.179L100.365 258.572L97.3317 257.595L94.1295 267.555C92.2924 273.286 95.4441 275.814 97.7531 276.555C98.8673 276.936 100.065 277.003 101.215 276.751C102.365 276.498 103.423 275.935 104.275 275.123L103.568 277.937L106.247 278.814ZM84.6409 251.51L83.8825 253.6H83.9836C84.906 253.124 85.9288 252.876 86.9668 252.876C88.0047 252.876 89.0275 253.124 89.9499 253.6C90.5853 253.867 91.1595 254.261 91.6371 254.758C92.1147 255.255 92.4857 255.844 92.7272 256.49C92.9687 257.136 93.0757 257.824 93.0415 258.512C93.0073 259.201 92.8327 259.875 92.5285 260.493C90.6577 264.285 86.242 264.707 80.1915 261.673L80.0229 261.993C79.7197 262.449 79.5241 262.968 79.4512 263.511C79.3783 264.053 79.4299 264.605 79.6021 265.125C79.7742 265.645 80.0624 266.119 80.4449 266.511C80.8274 266.902 81.294 267.202 81.8094 267.387C83.2555 268.101 84.8722 268.399 86.478 268.246L86.1915 270.454C84.1717 270.619 82.1461 270.216 80.3432 269.291C75.523 266.915 75.978 263.072 77.5454 259.92L80.4443 254.038C81.1149 252.79 81.6787 251.488 82.1297 250.145L84.6409 251.51ZM81.1016 259.735C84.1858 261.42 87.9948 262.533 89.5285 259.482C89.7388 259.134 89.8711 258.744 89.9163 258.34C89.9615 257.936 89.9185 257.527 89.7904 257.141C89.6622 256.754 89.4519 256.401 89.174 256.104C88.896 255.807 88.557 255.574 88.1802 255.42C87.3647 254.999 86.4372 254.846 85.5295 254.982C84.6218 255.118 83.7801 255.537 83.1241 256.179C82.8783 256.419 82.6734 256.698 82.5173 257.005L81.1016 259.735ZM68.0558 262.785C68.8311 261.572 69.7075 260.358 70.7861 258.909L78.5726 248.898L76.0782 247.027L69.7075 255.454C69.0087 256.394 67.9876 257.043 66.8398 257.276C65.6921 257.509 64.4986 257.311 63.4884 256.718C61.567 255.252 61.803 252.875 63.4884 250.651L69.8254 242.224L67.3311 240.336L60.8086 248.982C60.4779 249.413 60.0861 249.793 59.6457 250.111C58.9465 250.6 58.114 250.862 57.2609 250.862C56.4078 250.862 55.5753 250.6 54.8761 250.111C52.8367 248.578 53.0727 246.201 55.0952 243.521L61.0783 235.583L58.6008 233.712L52.3648 241.954C48.6907 246.825 50.5109 250.111 52.3648 251.51C53.4528 252.388 54.8098 252.864 56.2075 252.858C57.2193 252.854 58.2188 252.636 59.1401 252.218C58.795 253.255 58.7869 254.374 59.1169 255.415C59.4469 256.457 60.0981 257.367 60.9771 258.016C61.8586 258.719 62.9196 259.162 64.0397 259.293C65.1598 259.424 66.2942 259.238 67.3142 258.757H67.4153L65.8142 261.1L68.0558 262.785ZM48.6565 234.623C49.3029 234.129 49.8347 233.501 50.2153 232.783C50.5959 232.064 50.8162 231.271 50.861 230.459C50.9059 229.647 50.7742 228.835 50.4751 228.078C50.176 227.322 49.7166 226.64 49.1284 226.078C48.0454 224.809 46.6998 223.792 45.1846 223.095L46.5161 221.156C48.323 222.01 49.9307 223.233 51.2351 224.746C54.8587 228.741 54.4037 233.527 50.4767 237.083C46.5498 240.64 41.3756 241.111 37.9543 237.336C34.1116 233.089 36.8082 228.572 39.2015 226.415C39.5735 226.085 39.9676 225.781 40.3813 225.505L48.6565 234.623ZM40.6846 229.23C39.1509 230.561 37.3139 233.325 39.8082 235.971C41.9824 238.364 45.134 237.404 46.9374 236.106L40.6846 229.23ZM26.6559 211.203C27.4085 211.261 28.1614 211.094 28.8191 210.724C29.2556 210.483 29.64 210.158 29.9503 209.768C30.2605 209.378 30.4905 208.93 30.6268 208.451C30.7631 207.971 30.8031 207.47 30.7445 206.975C30.686 206.479 30.5299 206.001 30.2854 205.567C29.921 204.906 29.3684 204.368 28.6978 204.021C28.0271 203.675 27.2687 203.535 26.5187 203.621C25.7687 203.706 25.061 204.012 24.4854 204.501C23.9098 204.989 23.4923 205.638 23.2858 206.364C23.0794 207.09 23.0934 207.861 23.3259 208.579C23.5585 209.297 23.9992 209.93 24.5921 210.397C25.185 210.864 25.9033 211.145 26.6559 211.203ZM28.7696 190.01L5.51121 197.443L4.46628 194.157L13.8539 182.949C15.7747 180.613 17.8525 178.411 20.073 176.359C17.0561 177.623 14.2584 178.6 10.6348 179.73L0.893254 182.848L0 179.982L23.2584 172.533L24.219 175.584L14.7808 186.741C12.795 189.141 10.6676 191.42 8.41008 193.567V193.668C11.2921 192.555 14.0561 191.595 17.9325 190.297L27.8595 187.128L28.7696 190.01ZM18.8428 159.151L21.0001 158.578L20.6124 155.662C19.2703 156.083 17.8945 156.388 16.5001 156.572L10.0114 157.533C6.5226 158.039 3.10126 159.859 3.87654 165.168C4.14589 167.182 4.97509 169.08 6.26979 170.645L8.24169 169.617C7.19668 168.385 6.51921 166.885 6.28665 165.286C6.1501 164.761 6.13301 164.213 6.23665 163.681C6.34029 163.148 6.56201 162.646 6.88548 162.211C7.20895 161.776 7.62591 161.419 8.10565 161.167C8.58538 160.914 9.11567 160.773 9.65742 160.752H10.0282C10.972 167.46 13.8203 170.848 18.0169 170.241C18.6991 170.139 19.3531 169.898 19.9387 169.534C20.5243 169.169 21.0292 168.689 21.4223 168.122C21.8154 167.556 22.0884 166.914 22.2245 166.238C22.3605 165.562 22.3568 164.865 22.2136 164.19C22.0863 163.16 21.7137 162.176 21.1272 161.319C20.5407 160.463 19.7573 159.76 18.8428 159.269V159.151ZM17.2754 167.005C13.9046 167.527 12.6574 163.719 12.2192 160.263L15.2866 159.859C15.6331 159.809 15.9851 159.809 16.3316 159.859C17.2417 160.037 18.0724 160.497 18.705 161.175C19.3376 161.853 19.7397 162.714 19.854 163.634C19.9315 164.028 19.9243 164.434 19.833 164.825C19.7418 165.215 19.5685 165.582 19.3246 165.901C19.0808 166.22 18.772 166.483 18.4187 166.673C18.0654 166.864 17.6757 166.977 17.2754 167.005ZM5.24562 151.395L5.24424 151.395C4.17376 151.377 3.19845 151.36 2.309 151.415L2.41012 148.634H5.24157V148.466C4.26688 147.9 3.46958 147.073 2.93953 146.079C2.40948 145.084 2.16775 143.961 2.24158 142.837C2.27165 141.745 2.64656 140.69 3.31262 139.824C3.97867 138.958 4.90168 138.326 5.94943 138.016C5.08122 137.488 4.32994 136.789 3.74158 135.96C2.93379 134.824 2.55191 133.44 2.66293 132.05C2.66293 129.724 4.34832 126.337 10.5 126.589L20.8146 126.977L20.6966 130.095L10.7696 129.707C7.39887 129.573 5.32584 130.736 5.22471 133.297C5.22528 134.148 5.48982 134.978 5.98186 135.672C6.4739 136.367 7.1692 136.891 7.9719 137.174C8.47941 137.365 9.01432 137.473 9.55616 137.494L20.3932 137.915L20.2584 141.033L9.75841 140.629C6.97752 140.511 4.90449 141.674 4.80337 144.084C4.81981 144.995 5.12122 145.879 5.6653 146.61C6.20938 147.342 6.96882 147.885 7.83707 148.162C8.33163 148.358 8.85619 148.466 9.38762 148.483L19.955 148.887L19.837 152.005L7.04494 151.415C6.41703 151.415 5.81774 151.405 5.24562 151.395ZM16.7431 119.585C15.9345 119.679 15.1153 119.596 14.342 119.342L17.1397 107.393C17.056 107.366 16.9618 107.334 16.857 107.298C16.5611 107.197 16.1801 107.067 15.7072 106.955C12.5723 106.23 7.33079 106.567 6.03304 112.146C4.95439 117.084 8.2409 121.061 13.3813 122.258C18.5218 123.455 22.7184 121.129 23.9319 115.87C24.4396 113.934 24.5316 111.912 24.2015 109.938H21.8588C22.1353 111.581 22.0606 113.264 21.6397 114.876C21.5142 115.68 21.2153 116.447 20.7636 117.125C20.312 117.802 19.7185 118.373 19.0242 118.797C18.3299 119.222 17.5516 119.491 16.7431 119.585ZM8.19033 112.853C8.99932 109.365 12.269 109.23 14.2409 109.719L12.1341 118.803C10.0443 118.044 7.46562 116.005 8.19033 112.853ZM25.0279 97.9043C26.6791 96.7884 27.9957 95.2446 28.8369 93.438C30.1852 90.5054 29.4268 88.0953 27.1515 87.0504C24.8762 86.0054 23.3425 86.747 20.8144 89.2076C17.865 92.2413 14.9493 93.6065 11.8313 92.174C8.46055 90.5897 7.11225 86.5447 9.10101 82.2301C9.8257 80.4973 10.987 78.9817 12.4718 77.8313L14.4437 79.6852C13.1457 80.654 12.1137 81.9353 11.4437 83.4099C10.0448 86.4436 11.3257 88.4661 12.8426 89.1234C14.9156 90.084 16.5673 89.2076 19.1628 86.6796C22.3313 83.5953 25.0279 82.5167 28.2807 84.0167C31.5335 85.5166 33.5054 89.4942 31.0953 94.7357C30.2089 96.739 28.8217 98.4803 27.0672 99.7919L25.0279 97.9043ZM44.106 71.5612C42.8926 70.9039 41.5442 70.0612 40.0274 69.0669L29.2072 62.0556L27.5218 64.7186L36.5218 70.6174C36.9824 70.9225 37.3872 71.3044 37.7184 71.7466C38.2298 72.4858 38.5134 73.3585 38.5344 74.257C38.5554 75.1556 38.3127 76.0406 37.8364 76.8028C36.3195 79.2298 33.8926 78.8421 31.0948 77.0219L22.9881 71.6961L21.3027 74.359L29.8814 79.9882C35.0218 83.3589 38.1061 81.4376 39.606 79.1286C40.2646 78.165 40.654 77.0431 40.734 75.8787C40.814 74.7143 40.5817 73.5497 40.0611 72.5051L42.5555 73.9208L44.106 71.5612ZM37.7523 60.3873C36.1849 59.039 34.8029 57.9266 33.4883 57.0165L35.2916 54.8929L37.9883 57.0334L38.0894 56.9154C37.4672 55.9937 37.1532 54.8984 37.1925 53.7871C37.2319 52.6757 37.6226 51.6054 38.3085 50.73C38.506 50.5005 38.7262 50.2916 38.9658 50.1064L41.2579 52.0615C40.9706 52.283 40.7104 52.5375 40.4826 52.8199C39.8047 53.6773 39.4661 54.7542 39.5314 55.8453C39.5967 56.9363 40.0613 57.9652 40.8366 58.7356C41.1436 59.1225 41.4879 59.4781 41.8646 59.7974L48.9939 65.8648L46.9545 68.2749L37.7523 60.3873ZM42.2852 46.82C43.3975 47.7807 44.4256 48.8593 45.6559 50.1908L54.2683 59.6121L56.6278 57.4548L49.4818 49.7863C49.1339 49.4263 48.849 49.0104 48.6391 48.5559C48.2134 47.6868 48.077 46.7043 48.2499 45.7521C48.4227 44.7998 48.8957 43.9279 49.5997 43.2638C51.8244 41.2245 54.184 42.2526 56.0885 44.3425L62.83 51.8087L65.1896 49.6514L58.1278 41.9324C54.0829 37.4829 50.3076 38.9155 48.5211 40.6009C47.6345 41.3704 46.9746 42.3671 46.6123 43.4837C46.25 44.6003 46.199 45.7946 46.4649 46.938L44.375 44.9155L42.2852 46.82ZM76.8024 41.5447L75.3529 39.8593H75.2687C75.2181 40.8944 74.9211 41.9025 74.4022 42.7995C73.8833 43.6966 73.1576 44.4567 72.2855 45.0166C71.7385 45.4359 71.1116 45.7389 70.4432 45.9071C69.7749 46.0753 69.0792 46.1051 68.3989 45.9946C67.7186 45.8841 67.0681 45.6357 66.4873 45.2646C65.9065 44.8936 65.4077 44.4077 65.0215 43.8368C62.6451 40.3312 64.4822 36.3032 70.0777 32.5447L69.8754 32.2414C69.6324 31.7486 69.2801 31.3179 68.8452 30.9821C68.4104 30.6463 67.9046 30.4142 67.3665 30.3037C66.8283 30.1931 66.272 30.2069 65.74 30.3441C65.208 30.4813 64.7143 30.7383 64.2968 31.0953C62.9636 32.0042 61.9079 33.2641 61.2462 34.7357L59.4766 33.4043C60.3272 31.5647 61.6758 30 63.3698 28.8874C67.8193 25.8875 70.9541 28.1964 72.9091 31.1121L76.5833 36.5391C77.3403 37.742 78.2093 38.8706 79.1787 39.9099L76.8024 41.5447ZM71.4091 34.3987C68.4765 36.2863 65.5608 38.9998 67.4653 41.8312C67.6649 42.1852 67.9389 42.4918 68.2683 42.7299C68.5977 42.9679 68.9747 43.1318 69.3735 43.2103C69.7723 43.2888 70.1833 43.28 70.5783 43.1845C70.9734 43.089 71.343 42.909 71.6619 42.6571C72.4433 42.1587 73.0457 41.4246 73.382 40.561C73.7184 39.6975 73.7712 38.7492 73.5327 37.8537C73.4375 37.5261 73.2956 37.2139 73.1114 36.9268L71.4091 34.3987ZM75.1347 21.6066C75.8089 22.8875 76.4325 24.219 77.1572 25.9044L82.2134 37.7358L85.0785 36.5055L80.8819 26.7976C80.6716 26.3113 80.5462 25.7926 80.5111 25.2639C80.383 24.3611 80.5418 23.4409 80.9652 22.6334C81.3887 21.8259 82.0552 21.1719 82.8707 20.7639C85.0954 19.8032 87.0336 21.1853 88.1291 23.7471L92.2246 33.4718L95.0897 32.2414L90.8088 22.2808C90.586 21.7851 90.4492 21.255 90.4043 20.7134C90.3186 19.869 90.4941 19.0188 90.907 18.2773C91.3199 17.5359 91.9504 16.939 92.7133 16.5673C95.0897 15.4718 97.0111 16.837 98.3425 19.9381L102.269 29.056L105.135 27.8257L101.056 18.337C98.6459 12.7583 94.8875 12.7078 92.747 13.6347C91.4483 14.1424 90.3647 15.0831 89.6796 16.2976C89.1829 17.1789 88.8784 18.1554 88.7864 19.1628C88.0552 18.3509 87.0857 17.7914 86.017 17.5643C84.9483 17.3372 83.8351 17.4543 82.8369 17.8988C81.7892 18.3157 80.8797 19.0187 80.2122 19.9276C79.5447 20.8365 79.146 21.9147 79.0617 23.0392H78.9606L77.6965 20.5111L75.1347 21.6066ZM109.247 18.6909C109.352 19.4982 109.632 20.273 110.066 20.9618C110.499 21.6507 111.078 22.2373 111.76 22.6811C112.443 23.1249 113.213 23.4154 114.019 23.5325C114.825 23.6496 115.646 23.5906 116.427 23.3594C118.062 23.0473 119.613 22.3925 120.977 21.4381L122.005 23.5448C120.364 24.6953 118.497 25.4824 116.528 25.8538C111.253 27.0167 107.342 24.1684 106.213 19.1123C105.084 14.0561 107.241 9.20218 112.23 8.10668C117.826 6.8932 120.387 11.4774 121.078 14.6291C121.178 15.1191 121.252 15.6143 121.297 16.1123L109.247 18.6909ZM117.893 14.4606C117.505 12.4718 115.972 9.57297 112.466 10.3482C109.314 11.0393 108.573 14.2415 108.792 16.4493L117.893 14.4606ZM132.514 11.5865C132.128 12.2345 131.942 12.9825 131.982 13.7359C132.001 14.2355 132.12 14.7263 132.331 15.1795C132.543 15.6326 132.842 16.0391 133.213 16.375C133.583 16.7109 134.017 16.9695 134.488 17.1356C134.96 17.3018 135.46 17.3721 135.959 17.3426C136.713 17.3082 137.439 17.0508 138.046 16.603C138.654 16.1552 139.114 15.5373 139.369 14.8274C139.625 14.1176 139.664 13.3479 139.481 12.616C139.299 11.884 138.903 11.2227 138.344 10.7159C137.785 10.2092 137.089 9.8798 136.342 9.76953C135.596 9.65927 134.834 9.77309 134.152 10.0966C133.471 10.4201 132.901 10.9386 132.514 11.5865Z" fill="black"/>
</svg>
